<svg width="21" height="21" viewBox="0 0 21 21" fill="none" xmlns="http://www.w3.org/2000/svg">
<path d="M16.625 7.875V8.75H15.75V9.625H14.875V10.5H14V11.375H13.125V12.25H12.25V13.125H11.375V14H10.5V14.875H8.75V14H7.875V13.125H7V12.25H6.125V11.375H5.25V10.5H4.375V9.625H5.25V8.75H6.125V7.875H7V8.75H7.875V9.625H8.75V10.5H10.5V9.625H11.375V8.75H12.25V7.875H13.125V7H14V6.125H14.875V7H15.75V7.875H16.625Z" fill="#C90D77"/>
<path d="M19.25 1.75V0.875H1.75V1.75H0.875V19.25H1.75V20.125H19.25V19.25H20.125V1.75H19.25ZM18.375 18.375H2.625V2.625H18.375V18.375Z" fill="#C90D77"/>
</svg>
