<svg width="20" height="21" viewBox="0 0 20 21" fill="none" xmlns="http://www.w3.org/2000/svg">
<path d="M19.0909 3.22727V2.31818H18.1818V1.40909H17.2727V0.5H13.6364V1.40909H12.7273V2.31818H11.8182V3.22727H10.9091V4.13636H10V5.04545H9.09091V5.95455H8.18182V6.86364H7.27273V7.77273H6.36364V8.68182H5.45455V9.59091H4.54545V10.5H3.63636V11.4091H2.72727V12.3182H1.81818V13.2273H0.909091V14.1364H0V20.5H6.36364V19.5909H7.27273V18.6818H8.18182V17.7727H9.09091V16.8636H10V15.9545H10.9091V15.0455H11.8182V14.1364H12.7273V13.2273H13.6364V12.3182H14.5455V11.4091H15.4545V10.5H16.3636V9.59091H17.2727V8.68182H18.1818V7.77273H19.0909V6.86364H20V3.22727H19.0909ZM6.36364 17.7727H5.45455V18.6818H2.72727V17.7727H1.81818V15.0455H2.72727V14.1364H3.63636V15.0455H4.54545V15.9545H5.45455V16.8636H6.36364V17.7727ZM14.5455 9.59091H13.6364V10.5H12.7273V11.4091H11.8182V12.3182H10.9091V13.2273H10V14.1364H9.09091V15.0455H8.18182V15.9545H7.27273V15.0455H6.36364V14.1364H5.45455V13.2273H4.54545V12.3182H5.45455V11.4091H6.36364V10.5H7.27273V9.59091H8.18182V8.68182H9.09091V7.77273H10V6.86364H10.9091V5.95455H12.7273V6.86364H13.6364V7.77273H14.5455V9.59091ZM15.4545 6.86364V5.95455H14.5455V5.04545H13.6364V3.22727H14.5455V2.31818H16.3636V3.22727H17.2727V4.13636H18.1818V5.95455H17.2727V6.86364H15.4545Z" fill="#2C2C2C"/>
</svg>
