<svg width="20" height="20" viewBox="0 0 20 20" fill="none" xmlns="http://www.w3.org/2000/svg">
<g clip-path="url(#clip0_255_210)">
<path d="M19.1667 4.99996V5.83329H18.3333V6.66663H8.33333V5.83329H7.5V4.99996H8.33333V4.16663H18.3333V4.99996H19.1667Z" fill="#C90D77"/>
<path d="M18.3333 15H19.1667V15.8333H18.3333V16.6666H8.33333V15.8333H7.5V15H8.33333V14.1666H18.3333V15Z" fill="#C90D77"/>
<path d="M18.3333 9.99996H19.1667V10.8333H18.3333V11.6666H8.33333V10.8333H7.5V9.99996H8.33333V9.16663H18.3333V9.99996Z" fill="#C90D77"/>
<path d="M6.66634 12.5V14.1667H5.83301V15H4.99967V15.8333H4.16634V16.6667H3.33301V17.5H2.49967V16.6667H1.66634V15.8333H0.833008V14.1667H1.66634V15H2.49967V15.8333H3.33301V15H4.16634V14.1667H4.99967V13.3333H5.83301V12.5H6.66634Z" fill="#C90D77"/>
<path d="M6.66634 7.5V9.16667H5.83301V10H4.99967V10.8333H4.16634V11.6667H3.33301V12.5H2.49967V11.6667H1.66634V10.8333H0.833008V9.16667H1.66634V10H2.49967V10.8333H3.33301V10H4.16634V9.16667H4.99967V8.33333H5.83301V7.5H6.66634Z" fill="#C90D77"/>
<path d="M6.66634 2.5V4.16667H5.83301V5H4.99967V5.83333H4.16634V6.66667H3.33301V7.5H2.49967V6.66667H1.66634V5.83333H0.833008V4.16667H1.66634V5H2.49967V5.83333H3.33301V5H4.16634V4.16667H4.99967V3.33333H5.83301V2.5H6.66634Z" fill="#C90D77"/>
</g>
<defs>
<clipPath id="clip0_255_210">
<rect width="20" height="20" fill="white"/>
</clipPath>
</defs>
</svg>
