<svg width="20" height="20" viewBox="0 0 20 20" fill="none" xmlns="http://www.w3.org/2000/svg">
<g clip-path="url(#clip0_275_215)">
<path d="M18.333 16.6667V15.8334H17.4997V15H16.6663V14.1667H15.833V13.3334H14.1663V12.5H14.9997V10.8334H15.833V5.83337H14.9997V4.16671H14.1663V3.33337H13.333V2.50004H12.4997V1.66671H10.833V0.833374H5.83301V1.66671H4.16634V2.50004H3.33301V3.33337H2.49967V4.16671H1.66634V5.83337H0.833008V10.8334H1.66634V12.5H2.49967V13.3334H3.33301V14.1667H4.16634V15H5.83301V15.8334H10.833V15H12.4997V14.1667H13.333V15.8334H14.1663V16.6667H14.9997V17.5H15.833V18.3334H16.6663V19.1667H18.333V18.3334H19.1663V16.6667H18.333ZM9.99967 12.5V13.3334H6.66634V12.5H4.99967V11.6667H4.16634V10H3.33301V6.66671H4.16634V5.00004H4.99967V4.16671H6.66634V3.33337H9.99967V4.16671H11.6663V5.00004H12.4997V6.66671H13.333V10H12.4997V11.6667H11.6663V12.5H9.99967Z" fill="#2C2C2C"/>
</g>
<defs>
<clipPath id="clip0_275_215">
<rect width="20" height="20" fill="white"/>
</clipPath>
</defs>
</svg>
