<svg width="20" height="20" viewBox="0 0 20 20" fill="none" xmlns="http://www.w3.org/2000/svg">
<g clip-path="url(#clip0_255_433)">
<path d="M6.66667 0.833374H5V1.66671H6.66667V0.833374Z" fill="#2C2C2C"/>
<path d="M14.9997 0.833374H13.333V1.66671H14.9997V0.833374Z" fill="#2C2C2C"/>
<path d="M18.333 4.16663V3.33329H15.833V1.66663H14.9997V5.83329H13.333V1.66663H12.4997V3.33329H7.49967V1.66663H6.66634V5.83329H4.99967V1.66663H4.16634V3.33329H1.66634V4.16663H0.833008V18.3333H1.66634V19.1666H18.333V18.3333H19.1663V4.16663H18.333ZM17.4997 6.66663V9.16663H14.9997V6.66663H17.4997ZM17.4997 13.3333H14.9997V10.8333H17.4997V13.3333ZM17.4997 17.5H14.9997V15H17.4997V17.5ZM2.49967 15H4.99967V17.5H2.49967V15ZM2.49967 10.8333H4.99967V13.3333H2.49967V10.8333ZM13.333 13.3333H10.833V10.8333H13.333V13.3333ZM9.16634 13.3333H6.66634V10.8333H9.16634V13.3333ZM6.66634 15H9.16634V17.5H6.66634V15ZM10.833 15H13.333V17.5H10.833V15ZM13.333 9.16663H10.833V6.66663H13.333V9.16663ZM9.16634 6.66663V9.16663H6.66634V6.66663H9.16634ZM4.99967 9.16663H2.49967V6.66663H4.99967V9.16663Z" fill="#2C2C2C"/>
</g>
<defs>
<clipPath id="clip0_255_433">
<rect width="20" height="20" fill="white"/>
</clipPath>
</defs>
</svg>
