<svg width="20" height="20" viewBox="0 0 20 20" fill="none" xmlns="http://www.w3.org/2000/svg">
<path d="M5 10H3.75V8.75H5V10Z" fill="#C90D77"/>
<path d="M7.5 10H6.25V8.75H7.5V10Z" fill="#C90D77"/>
<path d="M10 10H8.75V8.75H10V10Z" fill="#C90D77"/>
<path d="M12.5 10H11.25V8.75H12.5V10Z" fill="#C90D77"/>
<path d="M2.5 2.5V3.75H6.25V5H7.5V3.75H12.5V5H13.75V3.75H17.5V2.5H13.75V1.25H12.5V2.5H7.5V1.25H6.25V2.5H2.5Z" fill="#C90D77"/>
<path d="M1.25 17.5H2.5V7.5H17.5V17.5H18.75V3.75H17.5V6.25H2.5V3.75H1.25V17.5Z" fill="#C90D77"/>
<path d="M2.5 17.5V18.75H17.5V17.5H2.5Z" fill="#C90D77"/>
</svg>
